<svg width="1440" height="1058" viewBox="0 0 1440 1058" fill="none" xmlns="http://www.w3.org/2000/svg">
<g style="mix-blend-mode:lighten" opacity="0.15">
<path fill-rule="evenodd" clip-rule="evenodd" d="M-13 613L892.434 467.513L-13 395V613Z" fill="#A7C7E3"/>
<path fill-rule="evenodd" clip-rule="evenodd" d="M-15 277C76.3163 299.434 906.551 445.665 906.551 445.665L-15 153V277Z" fill="#A7C7E3"/>
<path fill-rule="evenodd" clip-rule="evenodd" d="M699.56 -233L988.632 368.878L511.149 -62.4436L649.709 -221.819L699.56 -233Z" fill="#A7C7E3"/>
<path fill-rule="evenodd" clip-rule="evenodd" d="M865.207 -182.017L995.355 308.255L790.981 -182.848L865.207 -182.017Z" fill="#A7C7E3"/>
<path fill-rule="evenodd" clip-rule="evenodd" d="M1191.36 -71.3416L1079.16 368.103L1291.16 -68.2389" fill="#A7C7E3"/>
<path fill-rule="evenodd" clip-rule="evenodd" d="M1451.62 -18.7001L1162.48 335.174L1563.47 7.59848L1451.62 -18.7001Z" fill="#A7C7E3"/>
<path fill-rule="evenodd" clip-rule="evenodd" d="M1564.57 30.5062C1557.87 35.9506 1353.66 216.561 1353.66 216.561L1596.31 33.0807L1564.57 30.5062Z" fill="#A7C7E3"/>
<path fill-rule="evenodd" clip-rule="evenodd" d="M1144.75 431.53L1882.11 112.674L2042 165.556L2023.49 207.006L1144.75 431.53Z" fill="#A7C7E3"/>
<path fill-rule="evenodd" clip-rule="evenodd" d="M1982.67 270.167C1974.31 267.836 1286.38 416.67 1286.38 416.67L1931.2 349.812L1982.67 270.167Z" fill="#A7C7E3"/>
<path fill-rule="evenodd" clip-rule="evenodd" d="M1735.18 653.132L1434.79 583.311L1708.94 678.459L1735.18 653.132Z" fill="#A7C7E3"/>
<path fill-rule="evenodd" clip-rule="evenodd" d="M627.703 -152.86C628.671 -151.885 629.909 -150.98 630.567 -149.92C636.498 -140.353 642.31 -130.753 648.184 -121.172C656.241 -108.03 664.315 -94.8921 672.401 -81.7576C683.058 -64.4493 693.776 -47.1595 704.377 -29.8364C709.491 -21.4815 714.302 -13.0489 719.422 -4.69397C727.018 7.70919 734.828 20.057 742.424 32.4601C752.433 48.8044 762.302 65.1819 772.267 81.5372C780.887 95.68 789.541 109.812 798.2 123.944C807.079 138.437 815.946 152.931 824.881 167.41C831.622 178.328 838.475 189.217 845.244 200.124C846.155 201.595 847.055 203.087 847.601 204.623C847.849 205.325 847.224 206.16 846.74 207.807C845.317 206.385 844.563 205.805 844.096 205.137C836.764 194.669 829.484 184.186 822.169 173.715C813.093 160.725 803.956 147.756 794.92 134.755C789.979 127.648 785.259 120.475 780.33 113.365C772.138 101.56 763.816 89.7961 755.624 77.9913C750.019 69.9171 744.601 61.7874 738.991 53.7169C730.872 42.0377 722.601 30.3991 714.488 18.7162C709.637 11.7315 705.035 4.66936 700.196 -2.32265C686.602 -21.969 672.963 -41.6006 659.308 -61.2285C646.991 -78.932 634.618 -96.617 622.307 -114.32C620.13 -117.453 618.29 -120.692 616 -123.787C614.892 -125.291 613.102 -126.58 611.617 -127.965C616.979 -136.261 622.341 -144.56 627.703 -152.86Z" fill="#5B9BD5"/>
<path fill-rule="evenodd" clip-rule="evenodd" d="M141.004 728.559C142.456 727.743 143.716 726.649 145.388 726.154C166.161 719.975 186.979 713.869 207.809 707.775C234.704 699.904 261.621 692.066 288.522 684.199C315.788 676.224 343.038 668.22 370.304 660.238C391.308 654.088 412.318 647.953 433.322 641.807C460.96 633.722 488.598 625.633 516.247 617.562C517.963 617.06 519.791 616.72 522.385 616.114C521.592 618.556 519.369 618.992 517.513 619.623C507.289 623.08 497.077 626.552 486.808 629.947C472.393 634.712 457.893 639.369 443.489 644.149C422.783 651.019 402.134 657.956 381.462 664.866C358.809 672.438 336.179 680.043 313.498 687.582C290.283 695.298 266.995 702.922 243.774 710.638C221.819 717.936 199.915 725.305 177.982 732.64C174.589 733.774 171.18 734.893 167.781 736.02C158.852 733.531 149.928 731.045 141.004 728.559Z" fill="#5B9BD5"/>
<path fill-rule="evenodd" clip-rule="evenodd" d="M593.162 -99.4056C594.754 -97.5847 596.628 -95.8487 597.888 -93.9354C608.325 -78.1489 618.639 -62.3291 629.009 -46.5242C634.348 -38.3797 639.75 -30.2538 645.078 -22.1093C650.086 -14.4488 654.981 -6.75499 660.017 0.901879C670.719 17.187 681.505 33.4537 692.206 49.7425C697.073 57.1556 701.794 64.6057 706.633 72.0261C713.216 82.1245 719.929 92.1896 726.388 102.325C727.44 103.976 729.916 105.664 727.643 108.153C726.658 107.441 725.803 106.979 725.257 106.392C724.21 105.261 723.26 104.09 722.41 102.89C713.976 91.0187 705.575 79.1363 697.158 67.2577C689.078 55.8592 681.049 44.4422 672.89 33.0696C662.667 18.8233 652.331 4.61395 642.051 -9.61386C629.96 -26.357 617.84 -43.0928 605.81 -59.8544C600.139 -67.7587 594.704 -75.7369 589.015 -83.6339C588.126 -84.8676 586.438 -85.8575 585.121 -86.9582C587.8 -91.1061 590.478 -95.254 593.162 -99.4056Z" fill="#5B9BD5"/>
<path fill-rule="evenodd" clip-rule="evenodd" d="M1249.75 1037.34C1246.81 1030.04 1243.73 1022.77 1240.97 1015.45C1234.3 997.705 1227.77 979.939 1221.2 962.177C1215.39 946.475 1209.68 930.762 1203.81 915.072C1198.52 900.929 1193.02 886.823 1187.71 872.684C1183.94 862.656 1180.3 852.609 1176.68 842.559C1176.21 841.244 1174.98 839.803 1177.23 838.126C1177.99 839.138 1178.74 839.862 1179.08 840.66C1183.24 850.345 1187.33 860.044 1191.49 869.733C1196.18 880.695 1200.96 891.647 1205.64 902.613C1210.15 913.195 1214.56 923.8 1219.07 934.382C1224.18 946.368 1229.41 958.331 1234.51 970.321C1239.67 982.44 1244.69 994.581 1249.85 1006.7C1254.14 1016.78 1258.59 1026.82 1262.83 1036.9C1263.38 1038.21 1263.05 1039.68 1263.14 1041.07C1258.67 1039.83 1254.21 1038.58 1249.75 1037.34Z" fill="#5B9BD5"/>
<path fill-rule="evenodd" clip-rule="evenodd" d="M672.153 -199.233C675.417 -192.692 678.635 -186.143 681.96 -179.616C686.057 -171.579 690.215 -163.556 694.395 -155.534C700.269 -144.257 706.222 -132.999 712.074 -121.715C715.776 -114.568 719.31 -107.384 723.006 -100.237C731.109 -84.561 739.307 -68.9075 747.392 -53.2281C753.795 -40.8102 760.029 -28.3553 766.432 -15.9373C771.8 -5.52873 777.32 4.84664 782.721 15.2479C786.3 22.1438 789.749 29.0694 793.322 35.9654C799.939 48.7527 806.64 61.5215 813.234 74.3162C818.534 84.6029 823.655 94.9266 828.972 105.206C837.535 121.761 846.217 138.293 854.798 154.844C858.371 161.74 861.747 168.677 865.314 175.573C874.328 193.007 883.392 210.43 892.445 227.856C894.527 231.864 896.721 235.849 898.691 239.883C899.371 241.275 900.868 242.848 897.948 244.466C897.16 243.565 896.311 242.867 895.9 242.069C890.504 231.66 885.209 221.23 879.813 210.821C874.097 199.788 868.256 188.781 862.551 177.745C858.596 170.092 854.809 162.402 850.887 154.741C841.496 136.417 832.083 118.097 822.653 99.7836C815.479 85.8587 808.26 71.9412 801.075 58.02C793.89 44.0987 786.756 30.1627 779.525 16.2488C771.187 0.207463 762.719 -15.8007 754.391 -31.8457C748.472 -43.2516 742.728 -54.7018 736.831 -66.1151C728.858 -81.5396 720.767 -96.9346 712.817 -112.363C706.611 -124.404 700.618 -136.493 694.395 -148.531C686.749 -163.331 678.939 -178.094 671.247 -192.884C669.948 -195.388 668.879 -197.944 667.703 -200.478C669.183 -200.06 670.668 -199.647 672.153 -199.233Z" fill="#5B9BD5"/>
<path fill-rule="evenodd" clip-rule="evenodd" d="M650.896 -188.74C652.23 -187.314 653.974 -185.988 654.824 -184.448C661.108 -173.127 667.191 -161.754 673.38 -150.411C683.513 -131.836 693.698 -113.275 703.831 -94.7C712.063 -79.6116 720.21 -64.5047 728.47 -49.4237C737.951 -32.1043 747.555 -14.8071 757.025 2.51592C762.814 13.1055 768.396 23.7431 774.191 34.329C780.673 46.1708 787.352 57.9645 793.828 69.8062C802.555 85.7589 811.152 101.741 819.84 117.705C827.711 132.169 835.577 146.633 843.528 161.079C849.149 171.288 854.938 181.461 860.57 191.67C861.448 193.262 863.001 195.001 859.912 197.254C857.684 193.468 855.658 190.225 853.852 186.938C843.651 168.378 833.479 149.81 823.351 131.235C816.554 118.761 809.914 106.255 803.101 93.7852C794.858 78.7004 786.463 63.6526 778.209 48.5716C771.114 35.607 764.125 22.6166 757.087 9.6409C752.152 0.539827 747.274 -8.57601 742.277 -17.666C733.928 -32.8578 725.448 -48.0238 717.132 -63.223C707.787 -80.306 698.615 -97.4296 689.269 -114.509C679.867 -131.703 670.325 -148.867 660.883 -166.05C657.873 -171.531 655.066 -177.057 652.01 -182.527C651.352 -183.701 650.013 -184.713 648.989 -185.803C649.63 -186.786 650.26 -187.761 650.896 -188.74Z" fill="#5B9BD5"/>
<path fill-rule="evenodd" clip-rule="evenodd" d="M851.424 -147.069C852.972 -141.477 854.407 -135.87 856.089 -130.297C860.005 -117.31 864.017 -104.334 868.034 -91.3584C874.375 -70.8662 880.801 -50.3851 887.108 -29.8856C895.447 -2.77442 903.729 24.3478 911.989 51.47C917.171 68.4754 922.235 85.4993 927.411 102.508C932.74 120.031 938.119 137.55 943.52 155.061C945.197 160.506 947.082 165.924 948.742 171.372C949.057 172.403 948.747 173.515 948.73 174.589C948.213 174.626 947.695 174.663 947.177 174.7C946.232 172.222 945.141 169.758 944.359 167.254C940.96 156.361 937.685 145.45 934.293 134.558C929.735 119.905 925.059 105.271 920.53 90.615C916.923 78.9395 913.514 67.2418 909.941 55.5626C905.614 41.4197 901.191 27.2879 896.836 13.1488C893.635 2.76971 890.484 -7.61674 887.294 -17.9958C880.829 -39.0162 874.313 -60.0291 867.877 -81.0532C863.19 -96.3632 858.615 -111.688 853.951 -127.002C852.055 -133.226 850.018 -139.435 848.11 -145.658C847.88 -146.408 848.082 -147.217 848.082 -148C849.191 -147.693 850.31 -147.379 851.424 -147.069Z" fill="#5B9BD5"/>
<path fill-rule="evenodd" clip-rule="evenodd" d="M119.809 722.657C121.598 721.866 123.252 720.873 125.199 720.315C145.359 714.545 165.559 708.831 185.764 703.128C214.116 695.124 242.48 687.135 270.849 679.15C284.009 675.445 297.198 671.773 310.353 668.058C332.775 661.73 355.18 655.37 377.608 649.05C389.834 645.604 402.1 642.232 414.327 638.786C436.94 632.414 459.536 626.009 482.144 619.623C496.227 615.645 510.322 611.678 524.422 607.722C529.244 606.37 534.088 605.055 538.95 603.77C539.991 603.497 541.155 603.43 542.427 603.242C542.618 605.281 540.435 605.643 538.685 606.145C534.623 607.312 530.476 608.354 526.408 609.51C501.403 616.598 476.427 623.734 451.411 630.8C423.059 638.808 394.656 646.745 366.292 654.735C338.3 662.624 310.342 670.558 282.344 678.448C254.166 686.389 225.966 694.293 197.777 702.216C184.245 706.021 170.741 709.866 157.186 713.637C145.494 716.891 133.752 720.067 122.026 723.277C121.294 723.07 120.552 722.864 119.809 722.657Z" fill="#5B9BD5"/>
<path fill-rule="evenodd" clip-rule="evenodd" d="M769.195 -172.207C776.718 -152.014 784.285 -131.828 791.741 -111.624C797.817 -95.1543 803.708 -78.6549 809.774 -62.1814C817.167 -42.1029 824.695 -22.0429 832.094 -1.96807C839.302 17.5933 846.408 37.1658 853.582 56.7309C860.008 74.2423 866.462 91.7463 872.921 109.25C875.864 117.225 878.879 125.192 881.805 133.17C882.25 134.382 882.374 135.649 882.739 137.318C879.633 136.775 879.56 135.468 879.183 134.437C875.352 124.01 871.638 113.565 867.778 103.141C862.011 87.58 856.086 72.0446 850.358 56.476C844.721 41.1586 839.313 25.8079 833.692 10.4905C827.548 -6.24159 821.246 -22.9515 815.074 -39.6799C809.616 -54.4728 804.305 -69.2916 798.824 -84.0845C791.769 -103.125 784.6 -122.144 777.505 -141.177C774.056 -150.433 770.635 -159.697 767.31 -168.971C766.866 -170.209 767.068 -171.542 766.967 -172.831C767.71 -172.621 768.452 -172.414 769.195 -172.207Z" fill="#5B9BD5"/>
<path fill-rule="evenodd" clip-rule="evenodd" d="M1798.75 114.521C1796.85 115.685 1795.08 116.955 1793.04 117.993C1773.9 127.718 1754.72 137.414 1735.53 147.103C1713.62 158.161 1691.67 169.183 1669.77 180.245C1651.87 189.295 1634.02 198.392 1616.13 207.453C1591.06 220.147 1565.97 232.831 1540.87 245.508C1517.37 257.379 1493.83 269.217 1470.35 281.1C1453.25 289.746 1436.23 298.452 1419.14 307.11C1417.33 308.03 1415.32 308.787 1413.4 309.618C1413.08 309.363 1412.76 309.112 1412.45 308.857C1413.62 308.056 1414.65 307.143 1415.97 306.467C1429.51 299.568 1443.11 292.709 1456.68 285.835C1468.83 279.689 1480.95 273.528 1493.1 267.389C1513.24 257.213 1533.42 247.07 1553.54 236.876C1580.85 223.04 1608.08 209.144 1635.41 195.323C1656.98 184.412 1678.68 173.608 1700.24 162.697C1723.73 150.811 1747.13 138.847 1770.59 126.935C1779.2 122.562 1787.87 118.241 1796.51 113.897C1797.26 114.107 1798 114.314 1798.75 114.521Z" fill="#5B9BD5"/>
<path fill-rule="evenodd" clip-rule="evenodd" d="M83 712.403C85.0875 711.639 87.068 710.689 89.2793 710.132C110.356 704.805 131.462 699.535 152.573 694.264C177.262 688.103 201.985 681.986 226.658 675.799C246.255 670.887 265.791 665.871 285.382 660.951C303.084 656.504 320.824 652.127 338.542 647.709C346.459 645.737 354.37 643.754 362.27 641.748C382.21 636.684 402.128 631.58 422.086 626.545C426.165 625.515 430.379 624.713 434.751 623.756C435.612 625.74 433.57 626.069 432.039 626.46C424.528 628.388 416.971 630.253 409.437 632.137C396.248 635.436 383.06 638.73 369.877 642.036C349.531 647.141 329.191 652.245 308.856 657.365C291.161 661.819 273.493 666.329 255.781 670.761C231.288 676.889 206.757 682.943 182.264 689.067C170.201 692.085 158.205 695.213 146.147 698.238C126.747 703.103 107.324 707.926 87.912 712.773C87.3606 712.909 86.8655 713.146 86.3478 713.334C85.2281 713.027 84.1141 712.713 83 712.403Z" fill="#5B9BD5"/>
<path fill-rule="evenodd" clip-rule="evenodd" d="M1538.85 42.1411C1524.22 57.2184 1509.59 72.2958 1494.96 87.3731C1478.16 104.689 1461.37 122.001 1444.56 139.313C1441.87 142.087 1439.13 144.842 1437.28 148.008C1441.33 144.517 1445.41 141.049 1449.42 137.536C1481.58 109.335 1513.73 81.1272 1545.86 52.9154C1548.4 50.6881 1550.86 48.424 1553.35 46.1782C1554.09 46.3851 1554.83 46.5919 1555.58 46.7988C1549.04 52.6716 1542.58 58.5814 1535.96 64.4173C1519.46 78.9628 1502.91 93.4787 1486.35 107.995C1461.93 129.403 1437.5 150.8 1413.05 172.193C1411.9 173.202 1410.6 174.136 1408.77 175.577C1407.92 173.301 1409.61 172.216 1410.69 171.107C1417.73 163.846 1424.88 156.632 1431.94 149.382C1446.83 134.101 1461.67 118.806 1476.56 103.525C1489.16 90.5829 1501.83 77.67 1514.4 64.7165C1521.87 57.0116 1529.22 49.2513 1536.62 41.5169C1537.36 41.7237 1538.11 41.9306 1538.85 42.1411Z" fill="#5B9BD5"/>
<path fill-rule="evenodd" clip-rule="evenodd" d="M1475.94 1058C1469.52 1049.46 1463.21 1040.89 1456.64 1032.4C1446.97 1019.9 1437.04 1007.48 1427.38 994.98C1413.79 977.394 1400.4 959.75 1386.84 942.157C1375.37 927.283 1363.79 912.453 1352.28 897.597C1348.53 892.762 1344.81 887.92 1341.16 883.052C1340.35 881.97 1339.96 880.758 1339.36 879.609C1339.88 879.432 1340.39 879.251 1340.91 879.07C1342.14 880.3 1343.58 881.464 1344.59 882.775C1350.94 891.045 1357.12 899.381 1363.51 907.636C1376.49 924.376 1389.59 941.075 1402.6 957.807C1408 964.758 1413.24 971.765 1418.63 978.72C1429.22 992.394 1439.89 1006.04 1450.46 1019.72C1456.64 1027.75 1462.62 1035.85 1468.79 1043.88C1471.68 1047.65 1474.81 1051.34 1477.83 1055.07C1477.2 1056.05 1476.57 1057.02 1475.94 1058Z" fill="#5B9BD5"/>
<path fill-rule="evenodd" clip-rule="evenodd" d="M447.411 126.127C451.293 128.439 455.209 130.729 459.052 133.067C474.576 142.523 490.083 151.993 505.595 161.456C517.119 168.485 528.636 175.521 540.182 182.535C553.056 190.362 565.941 198.178 578.848 205.975C583.299 208.664 587.862 211.268 592.34 213.935C593.674 214.729 595.131 215.549 593.702 217.145C592.644 216.849 591.44 216.727 590.692 216.277C577.205 208.103 563.797 199.87 550.327 191.685C538.787 184.674 527.156 177.723 515.616 170.708C500.672 161.622 485.79 152.495 470.857 143.398C462.586 138.36 454.281 133.348 445.993 128.324C446.466 127.589 446.938 126.858 447.411 126.127Z" fill="#5B9BD5"/>
<path fill-rule="evenodd" clip-rule="evenodd" d="M1007.7 969.93C1008.22 958.147 1008.71 946.364 1009.26 934.585C1010.16 915.788 1011.1 896.992 1012.03 878.195C1013.11 856.085 1014.18 833.979 1015.3 811.869C1015.35 810.882 1015.79 809.904 1017.17 808.899C1017.38 809.667 1017.82 810.439 1017.78 811.204C1017.36 821.531 1016.87 831.862 1016.39 842.186C1015.7 856.879 1015.04 871.576 1014.29 886.269C1013.36 904.272 1012.31 922.274 1011.38 940.277C1010.94 948.88 1010.71 957.489 1010.24 966.092C1010.16 967.484 1009.31 968.855 1008.81 970.236C1008.44 970.14 1008.07 970.033 1007.7 969.93Z" fill="#5B9BD5"/>
<path fill-rule="evenodd" clip-rule="evenodd" d="M1196.41 -53.228C1194.24 -46.0957 1191.99 -38.9744 1189.92 -31.8309C1180.62 0.137337 1171.38 32.113 1162.08 64.0812C1161.69 65.4257 1161.01 66.7332 1160.46 68.0593C1159.96 67.9965 1159.45 67.93 1158.94 67.8672C1159.11 66.7813 1159.14 65.6769 1159.45 64.6094C1165.76 42.7691 1172.13 20.9324 1178.44 -0.907969C1183.22 -17.4147 1187.94 -33.9252 1192.72 -50.432C1193.06 -51.5881 1193.69 -52.7109 1194.18 -53.8486C1194.92 -53.6417 1195.67 -53.4349 1196.41 -53.228Z" fill="#5B9BD5"/>
<path fill-rule="evenodd" clip-rule="evenodd" d="M1120.56 -74.3519C1119.43 -68.9851 1118.13 -63.6293 1117.19 -58.2477C1114.73 -44.1677 1112.44 -30.0765 1110.09 -15.9891C1107.81 -2.29684 1105.57 11.4028 1103.24 25.0913C1102.99 26.554 1103.21 28.1828 1100.72 30.1368C1100.56 28.6187 1100.32 27.8948 1100.44 27.2004C1103.02 11.798 1105.66 -3.6007 1108.24 -19.0031C1111.08 -35.9863 1113.85 -52.9732 1116.71 -69.9565C1117 -71.6482 1117.78 -73.3029 1118.33 -74.9724C1119.07 -74.7656 1119.82 -74.5587 1120.56 -74.3519Z" fill="#5B9BD5"/>
<path fill-rule="evenodd" clip-rule="evenodd" d="M1464.12 21.3276C1457.98 27.6954 1451.77 34.0336 1445.73 40.4383C1437.89 48.7601 1430.19 57.1446 1422.4 65.4921C1412.81 75.7604 1403.21 86.0249 1393.59 96.2784C1392.81 97.1095 1391.78 97.8408 1390.86 98.6202C1390.46 98.5057 1390.07 98.3912 1389.67 98.2767C1390.13 97.4087 1390.35 96.4483 1391.07 95.6837C1410.26 75.1583 1429.54 54.6698 1448.71 34.137C1452.91 29.6308 1456.76 24.9843 1460.77 20.4005C1461.88 20.7034 1463 21.0173 1464.12 21.3276Z" fill="#5B9BD5"/>
<path fill-rule="evenodd" clip-rule="evenodd" d="M148.336 588.9C159.409 587.492 170.493 586.126 181.549 584.667C201.895 581.978 222.218 579.23 242.558 576.519C243.903 576.338 245.276 576.268 246.846 576.124C247.549 577.978 245.76 578.362 244.038 578.624C238.344 579.485 232.628 580.297 226.905 581.084C222.961 581.627 218.989 582.074 215.039 582.595C193.714 585.42 172.389 588.264 151.059 591.068C149.731 591.242 148.302 591.097 146.918 591.097C147.391 590.362 147.863 589.631 148.336 588.9Z" fill="#5B9BD5"/>
<path fill-rule="evenodd" clip-rule="evenodd" d="M1031.12 976.456C1031.03 957.253 1030.94 938.053 1030.85 918.854C1030.81 910.514 1030.74 902.17 1030.77 893.826C1030.77 892.633 1031.2 891.44 1031.43 890.243C1031.88 890.258 1032.33 890.273 1032.78 890.291C1032.96 891.141 1033.28 891.99 1033.28 892.844C1033.37 910.329 1033.41 927.818 1033.5 945.304C1033.55 954.446 1033.71 963.584 1033.77 972.726C1033.78 974.173 1033.5 975.625 1033.36 977.077C1032.61 976.87 1031.87 976.663 1031.12 976.456Z" fill="#5B9BD5"/>
<path fill-rule="evenodd" clip-rule="evenodd" d="M414.287 177.383C420.797 180.253 427.324 183.101 433.806 185.996C446.471 191.659 459.131 197.328 471.723 203.054C473.732 203.966 475.398 205.207 477.26 206.315C474.886 208.058 473.473 207.072 472.067 206.418C463.509 202.451 455.024 198.414 446.398 194.51C435.28 189.479 424.049 184.552 412.869 179.581C413.336 178.845 413.815 178.114 414.287 177.383Z" fill="#5B9BD5"/>
<path fill-rule="evenodd" clip-rule="evenodd" d="M355.608 268.179C360.148 269.535 364.695 270.883 369.224 272.253C372.015 273.099 372.004 273.114 373.213 275.253C369.297 276.08 366.383 274.34 363.159 273.605C359.957 272.874 356.857 271.95 353.712 271.108C354.347 270.133 354.978 269.154 355.608 268.179Z" fill="#5B9BD5"/>
<path fill-rule="evenodd" clip-rule="evenodd" d="M1126.13 754.222C1127.36 757.51 1128.7 760.782 1129.8 764.088C1133.72 775.859 1137.47 787.653 1141.45 799.417C1147.75 818.026 1154.23 836.612 1160.55 855.217C1164.19 865.947 1167.64 876.706 1171.24 887.44C1176.27 902.44 1181.36 917.432 1186.38 932.432C1186.72 933.462 1186.6 934.563 1186.07 935.686C1183.61 933.883 1183.05 931.693 1182.34 929.588C1176.95 913.554 1171.71 897.501 1166.31 881.467C1159.99 862.726 1153.52 844.01 1147.21 825.269C1142.06 810.011 1137.07 794.734 1131.96 779.472C1129.84 773.133 1127.53 766.821 1125.39 760.487C1124.72 758.492 1123.64 756.483 1124.41 754.433C1124.99 754.366 1125.55 754.292 1126.13 754.222Z" fill="#5B9BD5"/>
<path fill-rule="evenodd" clip-rule="evenodd" d="M1466.42 930.264C1463.68 927.641 1461.09 925.325 1458.74 922.91C1444.71 908.53 1430.77 894.114 1416.74 879.739C1406.07 868.82 1395.31 857.946 1384.6 847.05C1375.09 837.373 1365.58 827.692 1356.13 817.989C1355.02 816.851 1353.17 815.713 1355.08 813.726C1356.17 814.432 1357.25 814.923 1357.9 815.595C1366.59 824.519 1375.17 833.487 1383.85 842.411C1395.24 854.123 1406.68 865.814 1418.13 877.5C1428.27 887.846 1438.46 898.173 1448.62 908.512C1454.52 914.514 1460.41 920.52 1466.29 926.533C1467.22 927.471 1468.92 928.339 1466.42 930.264Z" fill="#5B9BD5"/>
<path fill-rule="evenodd" clip-rule="evenodd" d="M1513.11 532.683L1148.6 471.893L1504.7 638.28L1513.11 532.683Z" fill="#A7C7E3"/>
<path fill-rule="evenodd" clip-rule="evenodd" d="M3 949L984.569 471.893L-35 695L3 949Z" fill="#A7C7E3"/>
<path fill-rule="evenodd" clip-rule="evenodd" d="M618.459 489.608C615.933 488.4 984.569 458.256 984.569 458.256L613.406 445.923L618.459 489.608Z" fill="#A7C7E3"/>
<path fill-rule="evenodd" clip-rule="evenodd" d="M451 -15L1027 435L35 -31L391 -15H451Z" fill="#A7C7E3"/>
<path fill-rule="evenodd" clip-rule="evenodd" d="M1037.07 -8.72678L1005.29 373.671L1094.35 -10.2272" fill="#A7C7E3"/>
<path fill-rule="evenodd" clip-rule="evenodd" d="M1141.04 -27.2947L1054.95 353.053L1209.05 -22.0529L1141.04 -27.2947Z" fill="#A7C7E3"/>
<path fill-rule="evenodd" clip-rule="evenodd" d="M1242.57 123.904C1238.64 130.054 1118.77 332.65 1118.77 332.65L1261.27 123.992L1242.57 123.904Z" fill="#A7C7E3"/>
<path fill-rule="evenodd" clip-rule="evenodd" d="M1105.77 415.677L1458 113L1489.55 142.74L1493.93 167.399L1105.77 415.677Z" fill="#A7C7E3"/>
<path fill-rule="evenodd" clip-rule="evenodd" d="M1493.93 206.832C1488.71 206.832 1175.62 386.948 1175.62 386.948L1493.93 256.559V206.832Z" fill="#A7C7E3"/>
<path fill-rule="evenodd" clip-rule="evenodd" d="M1493.93 445.923L1311.12 453.244L1488.7 463.191L1493.93 445.923Z" fill="#A7C7E3"/>
<path fill-rule="evenodd" clip-rule="evenodd" d="M536 125C536.844 125.373 537.812 125.669 538.521 126.134C544.929 130.322 551.287 134.544 557.674 138.748C566.429 144.513 575.195 150.275 583.967 156.034C595.524 163.62 607.103 171.189 618.638 178.794C624.197 182.462 629.632 186.214 635.191 189.878C643.451 195.323 651.806 200.704 660.066 206.145C670.948 213.318 681.773 220.528 692.638 227.712C702.035 233.925 711.448 240.126 720.861 246.328C730.516 252.688 740.16 259.052 749.838 265.394C757.136 270.178 764.484 274.928 771.799 279.703C772.783 280.346 773.768 281.004 774.584 281.739C774.955 282.075 774.91 282.607 775.214 283.552C773.976 283.009 773.38 282.813 772.901 282.529C765.446 278.071 758.008 273.598 750.553 269.136C741.308 263.599 732.041 258.085 722.814 252.537C717.772 249.504 712.821 246.405 707.779 243.369C699.407 238.331 690.984 233.334 682.612 228.296C676.884 224.85 671.24 221.348 665.513 217.902C657.219 212.919 648.869 207.981 640.581 202.994C635.624 200.014 630.78 196.955 625.828 193.971C611.919 185.579 597.988 177.202 584.051 168.828C571.481 161.275 558.889 153.744 546.319 146.19C544.097 144.853 542.015 143.413 539.747 142.113C538.644 141.481 537.26 141.064 536 140.55C536 135.361 536 130.182 536 125Z" fill="#5B9BD5"/>
<path fill-rule="evenodd" clip-rule="evenodd" d="M1448.55 151.582C1447.53 152.583 1446.62 153.643 1445.47 154.578C1438.71 160.089 1431.88 165.566 1425.09 171.062C1415.81 178.568 1406.53 186.077 1397.28 193.597C1390.8 198.868 1384.4 204.179 1377.9 209.435C1371.69 214.455 1365.35 219.408 1359.16 224.435C1352.6 229.761 1346.18 235.165 1339.63 240.491C1333.15 245.755 1326.54 250.952 1320.04 256.211C1313.76 261.294 1307.56 266.424 1301.31 271.521C1290.4 280.412 1279.48 289.295 1268.55 298.175C1263.82 302.023 1259.1 305.872 1254.32 309.702C1253.36 310.474 1252.21 311.147 1251.15 311.863C1250.89 311.738 1250.62 311.612 1250.35 311.486C1250.75 310.921 1251.02 310.293 1251.56 309.798C1255.56 306.156 1259.59 302.526 1263.65 298.917C1269.58 293.654 1275.55 288.416 1281.51 283.164C1288.43 277.058 1295.35 270.953 1302.25 264.836C1312.75 255.539 1323.2 246.228 1333.7 236.938C1344.63 227.283 1355.6 217.657 1366.52 208.002C1374.05 201.339 1381.47 194.628 1389.01 187.968C1397.09 180.821 1405.26 173.711 1413.37 166.575C1418.29 162.246 1423.19 157.906 1428.07 153.551C1428.74 152.949 1429.2 152.247 1429.76 151.59C1436.01 151.582 1442.28 151.582 1448.55 151.582Z" fill="#5B9BD5"/>
<path fill-rule="evenodd" clip-rule="evenodd" d="M676.25 720.736C676.739 720.09 677.032 719.325 677.746 718.819C686.625 712.488 695.549 706.191 704.484 699.897C716.024 691.767 727.587 683.656 739.127 675.53C750.824 667.293 762.511 659.042 774.203 650.801C783.211 644.452 792.23 638.11 801.244 631.764C813.105 623.413 824.96 615.062 836.827 606.718C837.564 606.201 838.413 605.75 839.578 605.048C839.994 606.455 838.97 607.017 838.199 607.623C833.974 610.958 829.754 614.301 825.483 617.61C819.485 622.257 813.409 626.855 807.422 631.509C798.819 638.195 790.261 644.91 781.686 651.61C772.29 658.957 762.916 666.314 753.497 673.642C743.853 681.148 734.136 688.609 724.492 696.114C715.371 703.21 706.301 710.338 697.209 717.449C695.802 718.549 694.378 719.643 692.966 720.74C687.396 720.736 681.82 720.736 676.25 720.736Z" fill="#5B9BD5"/>
<path fill-rule="evenodd" clip-rule="evenodd" d="M1280.77 111.85C1284.9 111.233 1289.03 110.617 1293.17 110C1292.97 110.448 1292.86 110.923 1292.54 111.337C1288.45 116.649 1284.36 121.958 1280.22 127.254C1273.96 135.269 1267.66 143.275 1261.39 151.291C1256.58 157.45 1251.8 163.622 1246.99 169.782C1240.61 177.942 1234.19 186.092 1227.81 194.252C1221.81 201.913 1215.85 209.578 1209.87 217.241C1201.93 227.41 1193.99 237.58 1186.05 247.747C1185.72 248.178 1185.33 248.594 1184.97 249.017C1184.79 248.6 1184.94 248.309 1185.14 248.029C1190.85 239.865 1196.55 231.695 1202.29 223.54C1209.68 213.053 1217.12 202.58 1224.52 192.095C1231.2 182.632 1237.87 173.163 1244.52 163.69C1251.78 153.338 1258.99 142.974 1266.25 132.626C1268.7 129.13 1271.31 125.67 1273.76 122.172C1276.15 118.745 1278.44 115.29 1280.77 111.85Z" fill="#5B9BD5"/>
<path fill-rule="evenodd" clip-rule="evenodd" d="M651 228.031C652.502 228.675 654.122 229.23 655.489 229.978C666.778 236.165 678.012 242.392 689.274 248.599C695.073 251.797 700.9 254.978 706.694 258.179C712.146 261.193 717.548 264.239 723.004 267.245C734.614 273.64 746.263 280.01 757.873 286.404C763.155 289.313 768.377 292.273 773.648 295.189C780.822 299.164 788.049 303.098 795.169 307.113C796.327 307.768 798.245 308.189 797.984 309.857C797.207 309.668 796.588 309.585 796.092 309.384C795.129 308.994 794.197 308.566 793.309 308.106C784.514 303.557 775.735 298.997 766.95 294.44C758.514 290.067 750.106 285.678 741.638 281.337C731.034 275.895 720.381 270.494 709.756 265.072C697.25 258.691 684.739 252.318 672.261 245.917C666.375 242.899 660.593 239.8 654.702 236.789C653.78 236.32 652.539 236.112 651.444 235.786C651.293 233.205 651.146 230.616 651 228.031Z" fill="#5B9BD5"/>
<path fill-rule="evenodd" clip-rule="evenodd" d="M534.388 660.15C539.02 658.307 543.788 656.557 548.241 654.605C565.374 647.094 582.427 639.533 599.478 631.965C611.516 626.625 623.445 621.216 635.502 615.894C649.472 609.73 663.532 603.627 677.565 597.501C677.937 597.338 678.444 597.258 678.827 597.158C680.409 597.5 679.974 598.135 678.957 598.739C677.446 599.636 675.817 600.498 674.159 601.334C662.056 607.45 649.944 613.56 637.822 619.664C622.761 627.251 607.656 634.814 592.629 642.413C581.926 647.825 571.318 653.281 560.659 658.712C554.055 662.074 547.459 665.435 540.793 668.762C539.414 669.451 537.738 669.995 536.201 670.606C535.597 667.121 534.992 663.636 534.388 660.15Z" fill="#5B9BD5"/>
<path fill-rule="evenodd" clip-rule="evenodd" d="M1365.95 125.004C1363.14 128.062 1360.37 131.143 1357.49 134.179C1354.55 137.278 1351.46 140.314 1348.51 143.409C1339.8 152.573 1331.15 161.759 1322.44 170.926C1314.47 179.315 1306.47 187.695 1298.47 196.069C1289.6 205.347 1280.7 214.607 1271.84 223.889C1264.95 231.107 1258.12 238.346 1251.26 245.578C1251.02 245.826 1250.83 246.091 1250.95 246.531C1251.37 246.165 1251.81 245.811 1252.2 245.434C1261.56 236.551 1270.91 227.664 1280.26 218.777C1287.31 212.081 1294.34 205.38 1301.4 198.688C1308.92 191.559 1316.47 184.445 1323.98 177.316C1329.65 171.935 1335.29 166.535 1340.96 161.153C1348.34 154.15 1355.76 147.165 1363.13 140.159C1368 135.531 1372.84 130.884 1377.66 126.234C1378.04 125.872 1378.21 125.414 1378.48 125.004C1379.4 125.004 1380.33 125.004 1381.26 125.004C1375.15 130.829 1369.02 136.653 1362.91 142.482C1348.51 156.211 1334.12 169.94 1319.72 183.666C1313.08 189.993 1306.44 196.313 1299.78 202.632C1289.11 212.771 1278.44 222.914 1267.74 233.046C1257.24 242.989 1246.7 252.91 1236.2 262.853C1231.32 267.481 1226.51 272.15 1221.65 276.789C1221.05 277.365 1220.3 277.875 1219.42 278.577C1218.44 277.284 1219.39 276.623 1220.04 275.943C1223.84 271.939 1227.68 267.958 1231.49 263.954C1238.48 256.596 1245.44 249.22 1252.44 241.866C1261.42 232.451 1270.45 223.054 1279.42 213.636C1286.25 206.474 1292.98 199.275 1299.82 192.12C1310.78 180.648 1321.82 169.209 1332.78 157.733C1339.67 150.515 1346.46 143.25 1353.31 136.018C1356.8 132.336 1360.34 128.671 1363.85 125C1364.56 125.004 1365.25 125.004 1365.95 125.004Z" fill="#5B9BD5"/>
<path fill-rule="evenodd" clip-rule="evenodd" d="M1495.2 577.191C1487.91 575.27 1480.59 573.383 1473.33 571.414C1464.87 569.124 1456.45 566.753 1448.01 564.43C1438.08 561.693 1428.15 558.959 1418.2 556.248C1413.93 555.081 1409.6 554.01 1405.34 552.806C1404.21 552.484 1402.52 552.311 1402.7 551.025C1403.93 550.298 1405.2 550.741 1406.35 550.933C1419.58 553.186 1432.78 555.502 1446.02 557.737C1454.2 559.118 1462.44 560.352 1470.63 561.715C1476.92 562.76 1483.16 563.913 1489.44 564.98C1491.34 565.301 1493.28 565.501 1495.2 565.756C1495.2 569.571 1495.2 573.379 1495.2 577.191Z" fill="#5B9BD5"/>
<path fill-rule="evenodd" clip-rule="evenodd" d="M1368.47 720.736C1364.42 717.308 1360.3 713.914 1356.33 710.446C1346.74 702.043 1337.2 693.603 1327.66 685.174C1319.22 677.724 1310.82 670.252 1302.35 662.813C1294.71 656.109 1286.98 649.457 1279.33 642.76C1273.91 638.01 1268.55 633.231 1263.2 628.444C1262.51 627.816 1261.36 627.236 1261.98 626.017C1262.72 626.442 1263.37 626.711 1263.83 627.084C1269.34 631.594 1274.82 636.123 1280.33 640.64C1286.56 645.748 1292.83 650.838 1299.06 655.95C1305.07 660.885 1311.02 665.845 1317.03 670.78C1323.84 676.368 1330.69 681.927 1337.49 687.519C1344.37 693.17 1351.17 698.855 1358.04 704.506C1363.76 709.204 1369.55 713.862 1375.23 718.575C1375.97 719.188 1376.3 720.008 1376.82 720.736C1374.04 720.736 1371.25 720.736 1368.47 720.736Z" fill="#5B9BD5"/>
<path fill-rule="evenodd" clip-rule="evenodd" d="M640.037 151.583C644.004 154.56 647.942 157.552 651.932 160.518C656.849 164.167 661.789 167.798 666.746 171.428C673.712 176.529 680.712 181.608 687.66 186.716C692.066 189.952 696.387 193.232 700.787 196.471C710.431 203.57 720.126 210.644 729.764 217.75C737.399 223.375 744.956 229.049 752.585 234.674C758.983 239.391 765.453 244.067 771.868 248.773C776.121 251.894 780.313 255.048 784.561 258.173C792.433 263.965 800.349 269.734 808.21 275.529C814.528 280.191 820.768 284.896 827.098 289.554C837.288 297.052 847.534 304.517 857.735 312.011C861.983 315.132 866.141 318.305 870.389 321.43C881.119 329.327 891.871 337.209 902.624 345.095C905.094 346.908 907.62 348.692 910.04 350.536C910.878 351.171 912.206 351.784 911.216 353.069C910.49 352.707 909.803 352.464 909.314 352.102C902.899 347.389 896.53 342.653 890.116 337.94C883.319 332.947 876.466 327.982 869.669 322.985C864.959 319.52 860.329 316.008 855.631 312.532C844.4 304.221 833.152 295.914 821.899 287.615C813.341 281.302 804.766 275.005 796.203 268.696C787.639 262.387 779.104 256.068 770.517 249.77C760.62 242.512 750.667 235.287 740.775 228.026C733.742 222.862 726.788 217.65 719.766 212.483C710.274 205.498 700.725 198.543 691.244 191.551C683.846 186.096 676.542 180.581 669.132 175.129C660.023 168.426 650.846 161.766 641.719 155.073C640.172 153.939 638.737 152.742 637.246 151.579C638.18 151.583 639.109 151.583 640.037 151.583Z" fill="#5B9BD5"/>
<path fill-rule="evenodd" clip-rule="evenodd" d="M632.378 160.267C633.571 160.824 634.949 161.271 635.923 161.958C643.119 167.022 650.226 172.142 657.377 177.231C669.091 185.564 680.823 193.886 692.537 202.222C702.052 208.993 711.527 215.785 721.053 222.548C731.991 230.316 742.985 238.051 753.923 245.822C760.608 250.572 767.196 255.377 773.881 260.127C781.359 265.439 788.926 270.691 796.404 276.002C806.476 283.157 816.491 290.345 826.546 297.514C835.655 304.007 844.764 310.501 853.913 316.972C860.378 321.545 866.922 326.073 873.387 330.646C874.394 331.359 875.812 332.049 874.951 333.697C872.475 332.024 870.298 330.605 868.216 329.131C856.473 320.813 844.742 312.492 833.033 304.151C825.173 298.556 817.386 292.915 809.514 287.32C799.994 280.553 790.406 273.827 780.88 267.064C772.694 261.25 764.552 255.407 756.393 249.578C750.671 245.489 744.971 241.386 739.221 237.312C729.611 230.504 719.939 223.73 710.34 216.912C699.554 209.251 688.846 201.543 678.06 193.882C667.207 186.17 656.291 178.495 645.42 170.793C641.954 168.337 638.578 165.826 635.09 163.384C634.342 162.86 633.284 162.52 632.372 162.095C632.378 161.486 632.378 160.876 632.378 160.267Z" fill="#5B9BD5"/>
<path fill-rule="evenodd" clip-rule="evenodd" d="M776.178 539.212C779.268 538.48 782.415 537.851 785.43 536.993C791.816 535.183 798.106 533.212 804.485 531.391C811.396 529.416 818.394 527.576 825.31 525.604C836.987 522.275 848.633 518.895 860.28 515.523C862.524 514.87 864.797 514.342 867.268 514.002C867.608 515.34 866.212 515.652 865.181 516.04C860.358 517.868 855.529 519.677 850.657 521.442C844.76 523.582 838.826 525.683 832.898 527.781C823.845 530.983 814.762 534.139 805.728 537.366C800.744 539.144 795.865 541.065 790.888 542.861C786.64 544.392 782.33 545.841 778.026 547.301C777.64 547.432 777.124 547.389 776.67 547.427C776.506 544.687 776.342 541.952 776.178 539.212Z" fill="#5B9BD5"/>
<path fill-rule="evenodd" clip-rule="evenodd" d="M1467.63 197.374C1461.82 201.204 1456.07 205.072 1450.2 208.861C1439.45 215.798 1428.63 222.679 1417.86 229.601C1412.81 232.851 1407.85 236.157 1402.79 239.407C1391.94 246.385 1381.04 253.325 1370.21 260.306C1364.91 263.719 1359.75 267.217 1354.45 270.626C1346.93 275.476 1339.33 280.277 1331.78 285.108C1328.37 287.288 1325 289.489 1321.62 291.687C1309.75 299.399 1297.91 307.126 1286.02 314.824C1280.65 318.296 1275.21 321.72 1269.79 325.158C1269.4 325.41 1268.93 325.605 1268 326.082C1268.08 325.339 1267.94 324.892 1268.21 324.619C1268.7 324.117 1269.41 323.696 1270.07 323.271C1277.62 318.44 1285.2 313.627 1292.72 308.777C1298.1 305.309 1303.37 301.767 1308.74 298.298C1317 292.961 1325.33 287.672 1333.59 282.331C1344.99 274.958 1356.34 267.553 1367.73 260.18C1377.14 254.09 1386.59 248.032 1396.02 241.949C1409 233.571 1421.96 225.187 1434.94 216.81C1444.53 210.619 1454.13 204.436 1463.74 198.26C1464.98 197.466 1466.33 196.753 1467.63 196C1467.63 196.458 1467.63 196.916 1467.63 197.374Z" fill="#5B9BD5"/>
<path fill-rule="evenodd" clip-rule="evenodd" d="M632.378 271.814C635.118 272.952 637.909 274.034 640.582 275.234C648.234 278.677 655.813 282.189 663.459 285.639C672.152 289.558 680.89 293.433 689.606 297.333C699.087 301.573 708.556 305.821 718.031 310.065C727.602 314.35 737.173 318.638 746.755 322.915C756.236 327.152 765.728 331.381 775.214 335.617C784.504 339.769 793.793 343.928 803.077 348.083C812.361 352.242 821.639 356.405 830.934 360.553C831.987 361.022 833.191 361.347 834.203 361.846C835.042 362.259 835.7 362.828 836.443 363.327C836.263 363.5 836.083 363.67 835.903 363.844C835.154 363.645 834.338 363.512 833.675 363.227C830.569 361.897 827.485 360.546 824.424 359.172C812.575 353.838 800.759 348.464 788.881 343.156C778.54 338.535 768.102 334.003 757.744 329.394C751.037 326.409 744.426 323.329 737.73 320.333C724.992 314.638 712.214 308.983 699.481 303.283C692.2 300.026 685.02 296.676 677.728 293.429C667.184 288.731 656.561 284.103 646.011 279.412C642.557 277.875 639.237 276.209 635.788 274.665C634.769 274.211 633.526 273.978 632.384 273.642C632.378 273.033 632.378 272.423 632.378 271.814Z" fill="#5B9BD5"/>
<path fill-rule="evenodd" clip-rule="evenodd" d="M663.022 720.736C663.697 720.053 664.231 719.284 665.075 718.705C673.768 712.68 682.506 706.682 691.244 700.687C703.51 692.273 715.782 683.866 728.059 675.463C733.753 671.563 739.475 667.677 745.17 663.773C754.87 657.121 764.547 650.454 774.253 643.805C779.542 640.182 784.882 636.588 790.171 632.965C799.955 626.261 809.723 619.542 819.497 612.834C825.59 608.653 831.689 604.479 837.794 600.306C839.882 598.88 841.997 597.469 844.13 596.073C844.585 595.774 845.176 595.567 845.79 595.279C846.589 596.328 845.559 596.841 844.805 597.366C843.055 598.581 841.221 599.744 839.46 600.956C828.657 608.391 817.882 615.845 807.056 623.273C794.79 631.687 782.479 640.071 770.208 648.478C758.094 656.777 746.013 665.095 733.899 673.395C721.707 681.746 709.486 690.086 697.282 698.434C691.424 702.441 685.595 706.464 679.71 710.457C674.635 713.903 669.509 717.312 664.406 720.736C663.95 720.736 663.483 720.736 663.022 720.736Z" fill="#5B9BD5"/>
<path fill-rule="evenodd" clip-rule="evenodd" d="M700.624 151.582C711.506 161.16 722.416 170.723 733.269 180.315C742.114 188.134 750.875 195.994 759.72 203.817C770.495 213.351 781.337 222.854 792.118 232.388C802.617 241.673 813.071 250.985 823.559 260.278C832.944 268.596 842.346 276.907 851.748 285.217C856.036 289.003 860.351 292.774 864.627 296.564C865.28 297.14 865.775 297.79 866.54 298.622C864.712 298.791 864.228 298.112 863.671 297.621C858.078 292.667 852.542 287.688 846.937 282.743C838.565 275.359 830.114 268.013 821.764 260.622C813.544 253.349 805.436 246.024 797.221 238.744C788.252 230.796 779.199 222.884 770.213 214.943C762.269 207.917 754.392 200.863 746.43 193.845C736.19 184.81 725.887 175.805 715.63 166.778C710.639 162.39 705.665 157.991 700.731 153.573C700.073 152.986 699.724 152.251 699.229 151.582C699.696 151.582 700.163 151.582 700.624 151.582Z" fill="#5B9BD5"/>
<path fill-rule="evenodd" clip-rule="evenodd" d="M1339.94 132C1339.33 132.894 1338.83 133.828 1338.11 134.678C1331.3 142.645 1324.47 150.601 1317.63 158.553C1309.82 167.632 1301.98 176.696 1294.17 185.779C1287.79 193.203 1281.46 200.65 1275.09 208.077C1266.17 218.49 1257.24 228.898 1248.29 239.303C1239.91 249.047 1231.51 258.78 1223.14 268.527C1217.06 275.623 1211.03 282.736 1204.95 289.832C1204.3 290.585 1203.5 291.284 1202.77 292.007C1202.51 291.919 1202.26 291.834 1202 291.745C1202.34 291.151 1202.58 290.512 1203.05 289.961C1207.85 284.314 1212.7 278.685 1217.53 273.044C1221.86 268.003 1226.17 262.957 1230.49 257.919C1237.67 249.568 1244.88 241.228 1252.04 232.869C1261.75 221.526 1271.42 210.161 1281.14 198.821C1288.82 189.872 1296.61 180.959 1304.29 172.006C1312.66 162.254 1320.95 152.477 1329.28 142.719C1332.35 139.136 1335.46 135.572 1338.54 132C1339.01 132 1339.47 132 1339.94 132Z" fill="#5B9BD5"/>
<path fill-rule="evenodd" clip-rule="evenodd" d="M1118.73 132C1117.16 137.925 1115.56 143.845 1114.03 149.774C1110.39 163.809 1106.79 177.845 1103.18 191.885C1100.24 203.294 1097.32 214.704 1094.38 226.113C1093.91 227.956 1093.37 229.792 1092.87 231.632C1092.61 231.624 1092.36 231.613 1092.11 231.602C1092.08 231.155 1091.94 230.701 1092.03 230.269C1093.96 221.607 1095.92 212.949 1097.87 204.291C1100.6 192.243 1103.34 180.198 1106.05 168.149C1108.59 156.936 1111.11 145.722 1113.61 134.504C1113.8 133.681 1113.78 132.838 1113.85 132.007C1115.48 132 1117.1 132 1118.73 132Z" fill="#5B9BD5"/>
<path fill-rule="evenodd" clip-rule="evenodd" d="M640.037 720.736C640.881 720.023 641.607 719.229 642.58 718.608C651.909 712.684 661.277 706.785 670.64 700.886C681.595 693.987 692.583 687.109 703.527 680.202C712.215 674.717 720.84 669.184 729.522 663.692C737.365 658.731 745.254 653.8 753.12 648.851C756.637 646.638 760.142 644.426 763.636 642.202C772.453 636.584 781.247 630.948 790.086 625.345C791.893 624.2 793.845 623.154 795.831 622.002C796.962 622.925 795.994 623.398 795.325 623.83C792.011 625.958 788.652 628.056 785.304 630.165C779.458 633.855 773.601 637.541 767.76 641.231C758.741 646.93 749.721 652.626 740.719 658.332C732.881 663.297 725.071 668.287 717.217 673.24C706.352 680.091 695.447 686.91 684.583 693.758C679.232 697.13 673.954 700.554 668.609 703.93C660.011 709.363 651.38 714.778 642.766 720.2C642.524 720.356 642.338 720.551 642.13 720.729C641.432 720.736 640.735 720.736 640.037 720.736Z" fill="#5B9BD5"/>
<path fill-rule="evenodd" clip-rule="evenodd" d="M1170.98 95.0074C1168.4 105.139 1165.81 115.274 1163.23 125.406C1160.26 137.041 1157.29 148.679 1154.32 160.314C1153.84 162.18 1153.34 164.041 1153.44 165.988C1154.39 163.546 1155.37 161.105 1156.28 158.656C1163.65 138.995 1171.02 119.334 1178.37 99.6724C1178.95 98.1211 1179.48 96.5587 1180.03 95.0037C1180.5 95.0037 1180.96 95.0037 1181.43 95.0037C1179.98 99.0741 1178.58 103.152 1177.07 107.215C1173.32 117.343 1169.52 127.463 1165.73 137.584C1160.13 152.51 1154.52 167.432 1148.9 182.35C1148.63 183.056 1148.26 183.743 1147.79 184.77C1146.56 183.691 1147.08 182.867 1147.28 182.121C1148.51 177.242 1149.83 172.37 1151.09 167.495C1153.74 157.219 1156.37 146.936 1159.02 136.66C1161.26 127.958 1163.55 119.256 1165.77 110.55C1167.09 105.372 1168.32 100.186 1169.6 95C1170.05 95.0074 1170.52 95.0074 1170.98 95.0074Z" fill="#5B9BD5"/>
<path fill-rule="evenodd" clip-rule="evenodd" d="M1495.2 698.334C1488.88 694.762 1482.61 691.157 1476.24 687.634C1466.85 682.444 1457.35 677.34 1447.96 672.15C1434.76 664.848 1421.64 657.486 1408.45 650.177C1397.3 643.997 1386.1 637.855 1374.93 631.694C1371.3 629.688 1367.67 627.675 1364.08 625.633C1363.28 625.178 1362.65 624.599 1361.94 624.078C1362.16 623.908 1362.37 623.738 1362.58 623.564C1363.65 624.033 1364.81 624.436 1365.79 624.983C1371.98 628.421 1378.1 631.923 1384.3 635.347C1396.9 642.291 1409.54 649.194 1422.14 656.131C1427.38 659.012 1432.54 661.948 1437.77 664.833C1448.05 670.506 1458.36 676.15 1468.63 681.838C1474.65 685.174 1480.58 688.576 1486.59 691.918C1489.41 693.488 1492.33 694.98 1495.2 696.51C1495.2 697.115 1495.2 697.725 1495.2 698.334Z" fill="#5B9BD5"/>
<path fill-rule="evenodd" clip-rule="evenodd" d="M632.378 474.789C634.691 474.778 637.009 474.83 639.31 474.745C652.262 474.257 665.22 473.781 678.167 473.219C687.76 472.802 697.337 472.252 706.919 471.768C711.195 471.554 715.466 471.339 719.742 471.144C732.109 470.578 744.476 470.021 756.844 469.474C757.929 469.426 759.544 469.064 759.679 470.135C759.837 471.354 758.008 471.162 756.849 471.221C749.231 471.62 741.607 472.008 733.977 472.34C721.492 472.887 709.001 473.382 696.515 473.921C682.758 474.512 669.007 475.125 655.25 475.731C648.779 476.015 642.303 476.322 635.833 476.599C634.685 476.647 633.526 476.614 632.372 476.617C632.378 476.008 632.378 475.399 632.378 474.789Z" fill="#5B9BD5"/>
<path fill-rule="evenodd" clip-rule="evenodd" d="M586.011 593.3C588.403 592.739 590.794 592.177 593.185 591.612C602.227 589.474 611.263 587.339 620.305 585.2C634.13 581.928 647.954 578.655 661.773 575.375C669.932 573.436 678.085 571.478 686.243 569.543C687.188 569.318 688.19 569.192 689.281 569C690.255 570.448 688.741 570.721 687.515 571.017C684.589 571.726 681.618 572.361 678.681 573.063C664.328 576.502 649.98 579.952 635.626 583.398C627.046 585.459 618.482 587.546 609.885 589.581C601.94 591.461 593.967 593.285 586 595.132C586.011 594.519 586.011 593.91 586.011 593.3Z" fill="#5B9BD5"/>
<path fill-rule="evenodd" clip-rule="evenodd" d="M632.378 356.841C635.225 357.491 638.078 358.126 640.908 358.798C652.352 361.513 663.797 364.239 675.241 366.961C683.743 368.982 692.239 371.006 700.747 373.019C710.233 375.261 719.725 377.499 729.223 379.723C732.497 380.487 735.8 381.197 739.08 381.946C740.059 382.168 741.106 382.39 740.898 383.442C740.24 383.442 739.559 383.553 739.007 383.424C729.076 381.086 719.168 378.707 709.243 376.362C700.741 374.352 692.211 372.391 683.704 370.378C672.687 367.774 661.692 365.137 650.681 362.522C644.582 361.074 638.477 359.648 632.372 358.211C632.378 357.757 632.378 357.299 632.378 356.841Z" fill="#5B9BD5"/>
<path fill-rule="evenodd" clip-rule="evenodd" d="M1495.2 359.127C1490.88 360.221 1486.56 361.306 1482.25 362.411C1468.31 365.983 1454.39 369.58 1440.44 373.126C1425.2 377.001 1409.94 380.827 1394.68 384.661C1393.81 384.879 1392.85 384.953 1391.91 385.097C1391.51 383.778 1392.75 383.671 1393.66 383.424C1396.87 382.545 1400.09 381.673 1403.33 380.846C1411.87 378.674 1420.43 376.528 1428.97 374.363C1437.18 372.284 1445.39 370.186 1453.6 368.103C1462.14 365.938 1470.68 363.766 1479.24 361.631C1484.54 360.309 1489.88 359.042 1495.2 357.753C1495.2 358.215 1495.2 358.673 1495.2 359.127Z" fill="#5B9BD5"/>
<path fill-rule="evenodd" clip-rule="evenodd" d="M1495.2 592.734C1492.59 591.962 1489.93 591.264 1487.38 590.407C1472.65 585.442 1457.97 580.419 1443.24 575.451C1432.52 571.839 1421.77 568.289 1411.04 564.699C1409.9 564.319 1408.73 563.946 1407.74 563.44C1407.24 563.185 1407.1 562.631 1406.8 562.213C1406.98 562.084 1407.15 561.951 1407.32 561.822C1408.21 562.051 1409.13 562.235 1409.98 562.52C1420.88 566.221 1431.76 569.951 1442.67 573.645C1454.61 577.69 1466.57 581.701 1478.52 585.731C1484.07 587.607 1489.63 589.487 1495.19 591.363C1495.2 591.818 1495.2 592.276 1495.2 592.734Z" fill="#5B9BD5"/>
<path fill-rule="evenodd" clip-rule="evenodd" d="M1495.2 501.76C1489.48 501.18 1483.78 500.537 1478.04 500.031C1461.97 498.609 1445.89 497.254 1429.82 495.858C1418.91 494.908 1408.01 493.955 1397.12 492.962C1395.87 492.847 1394.27 493.065 1393.58 492.005C1394.26 491.082 1395.41 491.407 1396.36 491.488C1408.53 492.548 1420.69 493.619 1432.86 494.709C1446.51 495.931 1460.15 497.221 1473.82 498.395C1480.93 499.005 1488.07 499.429 1495.21 499.939C1495.2 500.541 1495.2 501.15 1495.2 501.76Z" fill="#5B9BD5"/>
<path fill-rule="evenodd" clip-rule="evenodd" d="M1217.35 720.736C1213.59 714.427 1209.82 708.119 1206.09 701.806C1200.13 691.73 1194.2 681.643 1188.27 671.563C1181.28 659.706 1174.29 647.85 1167.31 635.99C1167.01 635.461 1166.9 634.878 1167.29 634.143C1167.67 634.516 1168.16 634.863 1168.41 635.273C1171.71 640.802 1174.99 646.335 1178.26 651.872C1182.92 659.751 1187.6 667.622 1192.22 675.508C1197.89 685.17 1203.49 694.847 1209.15 704.51C1211.86 709.127 1214.69 713.714 1217.37 718.339C1217.81 719.085 1217.83 719.938 1218.04 720.74C1217.81 720.736 1217.58 720.736 1217.35 720.736Z" fill="#5B9BD5"/>
<path fill-rule="evenodd" clip-rule="evenodd" d="M967.341 151.583C968.629 155.675 969.878 159.775 971.217 163.861C977.227 182.144 983.269 200.424 989.284 218.707C989.537 219.475 989.622 220.269 989.785 221.049C989.492 221.089 989.205 221.13 988.919 221.171C988.632 220.572 988.277 219.985 988.075 219.372C983.95 206.884 979.849 194.396 975.724 181.908C972.607 172.47 969.456 163.037 966.345 153.6C966.125 152.939 966.075 152.251 965.951 151.576C966.412 151.583 966.879 151.583 967.341 151.583Z" fill="#5B9BD5"/>
<path fill-rule="evenodd" clip-rule="evenodd" d="M919.987 151.583C921.22 154.589 922.362 157.614 923.707 160.602C927.223 168.414 930.824 176.208 934.403 184.005C937.88 191.588 941.374 199.164 944.823 206.75C945.189 207.559 945.864 208.39 945.217 209.79C944.615 209.011 944.244 208.664 944.063 208.276C940.159 199.747 936.293 191.208 932.394 182.679C928.09 173.275 923.74 163.879 919.453 154.471C919.025 153.533 918.873 152.543 918.592 151.579C919.059 151.583 919.526 151.583 919.987 151.583Z" fill="#5B9BD5"/>
<path fill-rule="evenodd" clip-rule="evenodd" d="M1101.26 175C1100.19 179.274 1099.07 183.54 1098.07 187.821C1096.76 193.379 1095.55 198.949 1094.29 204.516C1092.73 211.36 1091.16 218.208 1089.57 225.048C1089.44 225.603 1089.15 226.142 1088.93 226.688C1088.68 226.685 1088.43 226.685 1088.18 226.681C1088.13 226.153 1087.92 225.614 1088.04 225.104C1091.18 211.415 1094.37 197.734 1097.49 184.046C1098.17 181.043 1098.62 178.018 1099.17 175C1099.86 175 1100.56 175 1101.26 175Z" fill="#5B9BD5"/>
<path fill-rule="evenodd" clip-rule="evenodd" d="M632.378 645.763C637.757 643.388 643.153 641.031 648.504 638.627C658.35 634.206 668.163 629.759 677.998 625.326C678.645 625.034 679.349 624.791 680.131 624.484C681.138 625.359 680.322 625.829 679.501 626.22C676.783 627.513 674.037 628.787 671.275 630.047C669.373 630.915 667.426 631.738 665.513 632.595C655.194 637.234 644.886 641.881 634.556 646.505C633.914 646.793 633.104 646.926 632.378 647.133C632.378 646.675 632.378 646.221 632.378 645.763Z" fill="#5B9BD5"/>
<path fill-rule="evenodd" clip-rule="evenodd" d="M1231.97 720.736C1225.35 710.59 1218.74 700.447 1212.12 690.301C1209.25 685.894 1206.36 681.488 1203.53 677.07C1203.12 676.438 1202.94 675.744 1202.65 675.079C1202.89 675.02 1203.14 674.961 1203.38 674.906C1203.76 675.33 1204.23 675.733 1204.52 676.184C1210.54 685.421 1216.54 694.67 1222.57 703.908C1225.72 708.735 1228.93 713.548 1232.09 718.379C1232.59 719.144 1232.94 719.953 1233.36 720.74C1232.9 720.736 1232.44 720.736 1231.97 720.736Z" fill="#5B9BD5"/>
<path fill-rule="evenodd" clip-rule="evenodd" d="M632.651 381.444C637.028 382.288 641.411 383.122 645.787 383.985C654.332 385.674 662.876 387.368 671.402 389.101C672.759 389.379 674.035 389.873 675.379 390.271C674.64 391.496 673.577 391.112 672.62 390.913C666.801 389.693 661.003 388.427 655.17 387.251C647.652 385.735 640.1 384.287 632.568 382.812C632.591 382.358 632.621 381.901 632.651 381.444Z" fill="#5B9BD5"/>
<path fill-rule="evenodd" clip-rule="evenodd" d="M632.378 445.528C635.242 445.576 638.112 445.621 640.975 445.676C642.742 445.713 642.742 445.721 644.115 446.677C642.326 447.693 640.188 447.202 638.235 447.287C636.289 447.372 634.336 447.338 632.384 447.357C632.378 446.747 632.378 446.142 632.378 445.528Z" fill="#5B9BD5"/>
<path fill-rule="evenodd" clip-rule="evenodd" d="M1286.15 353.779C1285.58 352.394 1286.74 352.035 1287.69 351.647C1302.45 345.619 1317.22 339.603 1331.98 333.578C1341.82 329.563 1351.62 325.508 1361.48 321.515C1373.21 316.761 1385.01 312.078 1396.74 307.317C1405.51 303.756 1414.19 300.085 1422.95 296.516C1434.67 291.744 1446.45 287.039 1458.17 282.267C1467.03 278.658 1475.84 274.983 1484.69 271.356C1485.91 270.857 1487.24 270.48 1488.67 270C1489.3 271.156 1488.4 271.507 1487.53 271.876C1484.11 273.313 1480.73 274.783 1477.28 276.191C1467.93 280.006 1458.54 283.785 1449.19 287.6C1438.17 292.099 1427.16 296.624 1416.15 301.137C1411.24 303.15 1406.34 305.185 1401.4 307.176C1389.45 311.985 1377.46 316.739 1365.53 321.578C1357.25 324.939 1349.09 328.433 1340.83 331.82C1332.37 335.285 1323.86 338.686 1315.38 342.122C1306.5 345.715 1297.63 349.317 1288.74 352.907C1287.99 353.202 1287.18 353.431 1286.15 353.779Z" fill="#5B9BD5"/>
<path fill-rule="evenodd" clip-rule="evenodd" d="M1206.25 589.155C1208.03 590.713 1209.86 592.246 1211.57 593.834C1217.67 599.486 1223.68 605.174 1229.81 610.81C1239.5 619.727 1249.29 628.606 1258.99 637.519C1264.59 642.66 1270.1 647.842 1275.67 652.995C1283.45 660.19 1291.28 667.371 1299.06 674.569C1299.6 675.064 1299.91 675.663 1300.01 676.335C1298.09 675.744 1297.05 674.665 1295.96 673.657C1287.62 665.971 1279.36 658.247 1271.02 650.561C1261.27 641.574 1251.44 632.625 1241.69 623.642C1233.75 616.328 1225.89 608.978 1217.97 601.657C1214.67 598.618 1211.3 595.615 1208 592.582C1206.96 591.626 1205.7 590.721 1205.41 589.524C1205.69 589.398 1205.97 589.276 1206.25 589.155Z" fill="#5B9BD5"/>
<path fill-rule="evenodd" clip-rule="evenodd" d="M1446.49 632.152C1444.14 631.17 1441.98 630.324 1439.91 629.393C1427.57 623.852 1415.27 618.279 1402.93 612.742C1393.55 608.535 1384.14 604.369 1374.75 600.18C1366.41 596.461 1358.07 592.741 1349.75 588.999C1348.78 588.56 1347.4 588.231 1347.74 586.902C1348.55 587.116 1349.3 587.215 1349.87 587.474C1357.52 590.917 1365.12 594.396 1372.77 597.838C1382.8 602.356 1392.85 606.858 1402.91 611.353C1411.81 615.335 1420.73 619.295 1429.64 623.269C1434.82 625.577 1439.99 627.886 1445.16 630.198C1445.96 630.556 1447.16 630.767 1446.49 632.152Z" fill="#5B9BD5"/>
</g>
</svg>
