<svg width="1369" height="901" viewBox="0 0 1369 901" fill="none" xmlns="http://www.w3.org/2000/svg">
<path opacity="0.4" d="M68.0754 111.478C72.2954 55.2889 88.8601 28.9493 112.95 -16.9394C127.999 -45.6128 171.804 -47.7145 212.321 -47.269C293.694 -46.3692 364.607 -30.5521 429.989 -4.29581C633.525 77.4365 837.926 158.259 1040.54 240.951C1094.9 263.138 1145.61 289.413 1195.29 316.151C1275.43 359.283 1291.84 464.56 1190.8 543.39C1028.31 670.157 839.778 772.626 659.012 882.71C606 914.994 555.01 945.453 520.998 993.01C496.64 1027.06 443.867 1056.43 397.657 1081.43C349.148 1107.66 264.45 1086.17 254.276 1046.05C231.061 954.487 211.077 862.091 192.478 769.434C156.679 591.156 122.554 412.506 88.2332 233.898C81.5931 199.352 77.2468 164.3 71.8409 129.488C68.2666 129.057 71.6498 111.908 68.0754 111.478Z" fill="white"/>
</svg>
